<mxfile host="app.diagrams.net" modified="2022-05-31T09:08:27.337Z" agent="5.0 (Macintosh; Intel Mac OS X 10_15_7) AppleWebKit/605.1.15 (KHTML, like Gecko) Version/15.4 Safari/605.1.15" etag="bE-aq_DIAZatuASfK0xR" version="18.1.3" type="github">
  <diagram id="KewXI8Df1d864wGXaW69" name="Page-1">
    <mxGraphModel dx="1597" dy="511" grid="1" gridSize="10" guides="1" tooltips="1" connect="1" arrows="1" fold="1" page="1" pageScale="1" pageWidth="827" pageHeight="1169" math="0" shadow="0">
      <root>
        <mxCell id="0" />
        <mxCell id="1" parent="0" />
        <mxCell id="pdYrWP1sjf5Xo6GLsw4w-7" value="" style="group" vertex="1" connectable="0" parent="1">
          <mxGeometry x="180" y="190" width="140" height="60" as="geometry" />
        </mxCell>
        <mxCell id="pdYrWP1sjf5Xo6GLsw4w-1" value="distributor" style="rounded=0;whiteSpace=wrap;html=1;fillColor=#d80073;fontColor=#ffffff;strokeColor=#A50040;" vertex="1" parent="pdYrWP1sjf5Xo6GLsw4w-7">
          <mxGeometry width="120" height="40" as="geometry" />
        </mxCell>
        <mxCell id="pdYrWP1sjf5Xo6GLsw4w-2" value="distributor" style="rounded=0;whiteSpace=wrap;html=1;fillColor=#d80073;fontColor=#ffffff;strokeColor=#A50040;" vertex="1" parent="pdYrWP1sjf5Xo6GLsw4w-7">
          <mxGeometry x="10" y="10" width="120" height="40" as="geometry" />
        </mxCell>
        <mxCell id="pdYrWP1sjf5Xo6GLsw4w-3" value="Distributor" style="rounded=0;whiteSpace=wrap;html=1;fillColor=#d80073;fontColor=#ffffff;strokeColor=#A50040;" vertex="1" parent="pdYrWP1sjf5Xo6GLsw4w-7">
          <mxGeometry x="20" y="20" width="120" height="40" as="geometry" />
        </mxCell>
        <mxCell id="pdYrWP1sjf5Xo6GLsw4w-8" value="" style="group" vertex="1" connectable="0" parent="1">
          <mxGeometry x="220" y="310" width="140" height="60" as="geometry" />
        </mxCell>
        <mxCell id="pdYrWP1sjf5Xo6GLsw4w-4" value="Ingester" style="rounded=0;whiteSpace=wrap;html=1;fillColor=#0050ef;fontColor=#ffffff;strokeColor=#001DBC;" vertex="1" parent="pdYrWP1sjf5Xo6GLsw4w-8">
          <mxGeometry width="120" height="40" as="geometry" />
        </mxCell>
        <mxCell id="pdYrWP1sjf5Xo6GLsw4w-5" value="Ingester" style="rounded=0;whiteSpace=wrap;html=1;fillColor=#0050ef;fontColor=#ffffff;strokeColor=#001DBC;" vertex="1" parent="pdYrWP1sjf5Xo6GLsw4w-8">
          <mxGeometry x="10" y="10" width="120" height="40" as="geometry" />
        </mxCell>
        <mxCell id="pdYrWP1sjf5Xo6GLsw4w-6" value="Ingester" style="rounded=0;whiteSpace=wrap;html=1;fillColor=#0050ef;fontColor=#ffffff;strokeColor=#001DBC;" vertex="1" parent="pdYrWP1sjf5Xo6GLsw4w-8">
          <mxGeometry x="20" y="20" width="120" height="40" as="geometry" />
        </mxCell>
        <mxCell id="pdYrWP1sjf5Xo6GLsw4w-12" value="" style="group" vertex="1" connectable="0" parent="1">
          <mxGeometry x="460" y="250" width="140" height="60" as="geometry" />
        </mxCell>
        <mxCell id="pdYrWP1sjf5Xo6GLsw4w-9" value="Querier" style="rounded=0;whiteSpace=wrap;html=1;fillColor=#60a917;fontColor=#ffffff;strokeColor=#2D7600;" vertex="1" parent="pdYrWP1sjf5Xo6GLsw4w-12">
          <mxGeometry width="120" height="40" as="geometry" />
        </mxCell>
        <mxCell id="pdYrWP1sjf5Xo6GLsw4w-10" value="Querier" style="rounded=0;whiteSpace=wrap;html=1;fillColor=#60a917;fontColor=#ffffff;strokeColor=#2D7600;" vertex="1" parent="pdYrWP1sjf5Xo6GLsw4w-12">
          <mxGeometry x="10" y="10" width="120" height="40" as="geometry" />
        </mxCell>
        <mxCell id="pdYrWP1sjf5Xo6GLsw4w-11" value="Querier" style="rounded=0;whiteSpace=wrap;html=1;fillColor=#60a917;fontColor=#ffffff;strokeColor=#2D7600;" vertex="1" parent="pdYrWP1sjf5Xo6GLsw4w-12">
          <mxGeometry x="20" y="20" width="120" height="40" as="geometry" />
        </mxCell>
        <mxCell id="pdYrWP1sjf5Xo6GLsw4w-13" value="Chunks" style="shape=cylinder3;whiteSpace=wrap;html=1;boundedLbl=1;backgroundOutline=1;size=15;fillColor=#1ba1e2;fontColor=#ffffff;strokeColor=#006EAF;" vertex="1" parent="1">
          <mxGeometry x="500" y="470" width="60" height="80" as="geometry" />
        </mxCell>
        <mxCell id="pdYrWP1sjf5Xo6GLsw4w-14" value="Index" style="shape=cylinder3;whiteSpace=wrap;html=1;boundedLbl=1;backgroundOutline=1;size=15;fillColor=#1ba1e2;fontColor=#ffffff;strokeColor=#006EAF;" vertex="1" parent="1">
          <mxGeometry x="330" y="470" width="60" height="80" as="geometry" />
        </mxCell>
        <mxCell id="pdYrWP1sjf5Xo6GLsw4w-15" value="Promtail" style="rounded=0;whiteSpace=wrap;html=1;fillColor=#6a00ff;fontColor=#ffffff;strokeColor=#3700CC;" vertex="1" parent="1">
          <mxGeometry x="-120" y="200" width="110" height="40" as="geometry" />
        </mxCell>
      </root>
    </mxGraphModel>
  </diagram>
</mxfile>
